<svg id="Layer_1" data-name="Layer 1" xmlns="http://www.w3.org/2000/svg" viewBox="0 0 400 288"><defs><style>.cls-1,.cls-2,.cls-3,.cls-4,.cls-5{fill:#fff;}.cls-1{opacity:0.2;}.cls-2{opacity:0.35;}.cls-3{opacity:0.8;}.cls-4{opacity:0.5;}.cls-5{opacity:0.65;}.cls-6{fill:#0096cf;}</style></defs><title>Bison_white</title><polygon class="cls-1" points="311.43 154.87 252.28 223.58 255.91 232.53 280.79 231.64 311.43 154.87"/><polygon class="cls-2" points="0.85 132.83 0.01 230.56 17.66 157.83 0.85 132.83"/><polygon class="cls-3" points="399.98 102.36 399.94 218.27 377.7 109.54 399.98 102.36"/><polygon class="cls-4" points="87.99 287.78 45.05 257.08 56.45 287.78 87.99 287.78"/><polygon class="cls-3" points="265.68 0 339.72 93.19 313.21 19.08 265.68 0"/><polygon class="cls-5" points="150.81 41.98 166.53 178.29 97.32 62.13 150.81 41.98"/><polygon class="cls-3" points="265.68 0.07 311.43 154.87 275.16 149.69 265.68 0.07"/><polygon class="cls-1" points="310.93 219.39 328.76 268.62 329.06 211.82 310.93 219.39"/><polygon class="cls-4" points="150.78 42.01 211.49 204.35 275.16 149.69 150.78 42.01"/><polygon class="cls-4" points="120.42 159.31 166.53 178.29 97.32 62.13 120.42 159.31"/><polygon class="cls-3" points="252.24 223.49 275.9 288 242.58 287.7 252.24 223.49"/><polygon class="cls-3" points="65.86 228.91 87.99 287.85 44.98 257.01 65.86 228.91"/><polygon class="cls-5" points="14.25 93.19 97.32 62.13 92.43 156.65 14.25 93.19"/><polygon class="cls-5" points="92.46 156.54 45.05 257.08 120.42 159.31 92.46 156.54"/><polygon class="cls-2" points="211.49 204.43 166.53 178.29 150.78 42.02 211.49 204.43"/><path class="cls-6" d="M323.73,110.95"/><polygon class="cls-4" points="354.3 237.85 328.76 268.62 329.06 211.82 354.3 237.85"/><polygon class="cls-1" points="332.42 156.76 319.32 121.81 339.2 147.22 332.42 156.76"/><polygon class="cls-5" points="319.32 121.81 339.31 135.86 339.2 147.22 319.32 121.81"/><polygon class="cls-3" points="339.31 135.86 356.74 136.09 361.88 147.22 339.2 147.22 339.31 135.86"/><polygon class="cls-2" points="332.42 156.76 339.2 147.22 361.96 147.22 357.41 156.76 332.42 156.76"/><polygon class="cls-1" points="17.66 157.87 17.84 223.4 0 230.57 17.66 157.87"/><polygon class="cls-4" points="252.24 223.54 211.49 204.35 242.58 287.7 252.24 223.54"/><polygon class="cls-1" points="14.25 93.19 0.85 132.83 47.14 200.69 14.25 93.19"/><path class="cls-6" d="M96.79,228"/><polygon class="cls-3" points="92.43 156.65 120.42 159.31 97.32 62.13 92.43 156.65"/><polygon class="cls-1" points="120.42 159.31 136.19 232.75 90.99 197.72 120.42 159.31"/><polygon class="cls-2" points="120.42 159.31 166.53 178.29 136.19 232.75 120.42 159.31"/><polygon class="cls-1" points="211.49 204.43 136.19 232.75 166.53 178.29 211.49 204.43"/><polygon class="cls-2" points="14.25 93.19 92.43 156.65 46.91 200.46 14.25 93.19"/><polygon class="cls-4" points="30.02 216.78 45.05 257.08 92.43 156.65 30.02 216.78"/><polygon class="cls-5" points="265.68 0 150.78 42.01 275.16 149.69 265.68 0"/><polygon class="cls-5" points="311.43 154.87 252.24 223.62 275.16 149.69 311.43 154.87"/><polygon class="cls-2" points="275.16 149.69 252.24 223.54 211.49 204.35 275.16 149.69"/><polygon class="cls-4" points="311.43 154.87 329.06 211.82 400 218.33 311.43 154.87"/><polygon class="cls-1" points="381.84 237.85 354.3 237.85 329.06 211.82 381.84 237.85"/><polygon class="cls-2" points="311.43 154.87 329.06 211.82 280.78 231.64 311.43 154.87"/><polygon class="cls-5" points="399.98 102.36 339.72 93.19 377.85 109.83 399.98 102.36"/><polygon class="cls-2" points="329.06 211.82 399.94 218.33 381.92 237.93 329.06 211.82"/><polygon class="cls-5" points="319.1 121.69 324.81 125.7 339.72 93.19 265.68 0 311.43 154.87 322.5 130.74 319.1 121.69"/><polygon class="cls-2" points="339.09 135.75 339.63 135.75 377.84 109.83 339.72 93.19 324.81 125.7 339.09 135.75"/><polygon class="cls-2" points="322.5 130.75 311.44 154.87 327.47 144 322.5 130.75"/><polygon class="cls-5" points="377.81 109.79 339.42 135.87 356.74 136.09 361.88 147.22 361.96 147.22 357.41 156.76 332.42 156.76 327.6 143.89 311.43 154.87 399.94 218.27 377.81 109.79"/></svg>